<svg id="Layer_5" enable-background="new 0 0 64 64" height="512" viewBox="0 0 64 64" width="512" xmlns="http://www.w3.org/2000/svg"><g><g><path d="m16 59h-12c-1.654 0-3-1.346-3-3v-8c0-1.654 1.346-3 3-3h12c1.654 0 3 1.346 3 3v8c0 1.654-1.346 3-3 3zm-12-12c-.551 0-1 .448-1 1v8c0 .552.449 1 1 1h12c.551 0 1-.448 1-1v-8c0-.552-.449-1-1-1z"/></g><g><path d="m6 58h2v4h-2z"/></g><g><path d="m12 58h2v4h-2z"/></g><g><path d="m2 53h16v2h-16z"/></g><g><path d="m4 61h11.999v2h-11.999z"/></g><g><path d="m38 59h-12c-1.654 0-3-1.346-3-3v-8c0-1.654 1.346-3 3-3h12c1.654 0 3 1.346 3 3v8c0 1.654-1.346 3-3 3zm-12-12c-.551 0-1 .448-1 1v8c0 .552.449 1 1 1h12c.551 0 1-.448 1-1v-8c0-.552-.449-1-1-1z"/></g><g><path d="m28 58h2v4h-2z"/></g><g><path d="m34 58h2v4h-2z"/></g><g><path d="m24 53h16v2h-16z"/></g><g><path d="m26 61h11.999v2h-11.999z"/></g><g><path d="m60 59h-12c-1.654 0-3-1.346-3-3v-8c0-1.654 1.346-3 3-3h12c1.654 0 3 1.346 3 3v8c0 1.654-1.346 3-3 3zm-12-12c-.551 0-1 .448-1 1v8c0 .552.449 1 1 1h12c.551 0 1-.448 1-1v-8c0-.552-.449-1-1-1z"/></g><g><path d="m50 58h2v4h-2z"/></g><g><path d="m56 58h2v4h-2z"/></g><g><path d="m46 53h16v2h-16z"/></g><g><path d="m48 61h11.999v2h-11.999z"/></g><g><path d="m46 5c-7.18 0-13 5.82-13 13 0 .175.019.345.026.519.529 1.186.863 2.479.942 3.842.635-.23 1.317-.361 2.032-.361 3.314 0 6 2.686 6 6 0 .781-.154 1.526-.426 2.211 1.384.501 2.869.789 4.426.789 7.18 0 13-5.82 13-13s-5.82-13-13-13z" fill="#f0bc5e"/></g><g><path d="m18 49h6v2h-6z"/></g><g><path d="m40 49h6v2h-6z"/></g><g><path d="m63 18c0-9.374-7.626-17-17-17-7.526 0-14.134 4.996-16.274 12.081-1.924-1.31-4.239-2.081-6.726-2.081-5.958 0-10.902 4.263-11.837 10.05-3.467.415-6.163 3.374-6.163 6.95 0 3.859 3.14 7 7 7h3v4h-6v7h2v-5h6v-6h14v11h2v-11h3c1.425 0 2.751-.43 3.858-1.165 1.958.761 4.018 1.165 6.142 1.165.338 0 .667-.031 1-.051v6.051h6v5h2v-7h-6v-4.281c7.946-1.423 14-8.37 14-16.719zm-11.902 14.089c1.038-1.327 1.908-3.066 2.566-5.089h4.308c-1.737 2.304-4.115 4.087-6.874 5.089zm-11.848-10.283c-.116-.917-.185-1.855-.215-2.806h13.941c-.07 2.142-.354 4.179-.816 6h-9.845c-.652-1.366-1.729-2.49-3.065-3.194zm-2.215-2.806c.021.71.063 1.411.13 2.105-.38-.064-.767-.105-1.165-.105-.389 0-.778.033-1.164.1-.115-.724-.296-1.426-.534-2.1zm8.965-16c2.232 0 4.254 2.387 5.546 6h-11.092c1.292-3.613 3.314-6 5.546-6zm6.159 8c.462 1.821.746 3.858.816 6h-13.951c.07-2.142.354-4.179.816-6zm8.79 6h-5.975c-.063-2.139-.322-4.16-.752-6h5.034c.961 1.812 1.55 3.845 1.693 6zm-5.975 2h5.975c-.143 2.155-.732 4.188-1.693 6h-5.034c.43-1.84.689-3.861.752-6zm2.998-10h-4.308c-.658-2.023-1.528-3.762-2.566-5.089 2.759 1.002 5.137 2.785 6.874 5.089zm-17.058-5.106c-1.043 1.329-1.917 3.074-2.578 5.106h-4.324c1.752-2.321 4.151-4.109 6.902-5.106zm-8.17 7.106h5.034c-.43 1.84-.689 3.861-.752 6h-3.649c-.536-.927-1.193-1.772-1.947-2.519.296-1.231.738-2.397 1.314-3.481zm-20.744 22c-2.757 0-5-2.243-5-5 0-2.756 2.242-4.999 4.991-4.999h.002l.966.056.087-.964c.467-5.184 4.746-9.093 9.954-9.093 5.286 0 9.665 4.137 9.969 9.418l.077 1.337 1.26-.453c.556-.2 1.126-.302 1.694-.302 2.757 0 5 2.243 5 5s-2.243 5-5 5zm29.502-.687c.935-1.19 1.498-2.686 1.498-4.313 0-.34-.033-.672-.08-1h8.626c-1.292 3.613-3.314 6-5.546 6-1.543 0-3.051-.231-4.498-.687z"/><path d="m16 25c-1.654 0-3 1.346-3 3s1.346 3 3 3 3-1.346 3-3-1.346-3-3-3zm0 4c-.551 0-1-.448-1-1s.449-1 1-1 1 .448 1 1-.449 1-1 1z"/><path d="m24 25c-1.654 0-3 1.346-3 3s1.346 3 3 3 3-1.346 3-3-1.346-3-3-3zm0 4c-.551 0-1-.448-1-1s.449-1 1-1 1 .448 1 1-.449 1-1 1z"/><path d="m32 25c-1.654 0-3 1.346-3 3s1.346 3 3 3 3-1.346 3-3-1.346-3-3-3zm0 4c-.551 0-1-.448-1-1s.449-1 1-1 1 .448 1 1-.449 1-1 1z"/><path d="m23 15v2c2.636 0 5.001 1.762 5.751 4.285l1.917-.57c-1.001-3.365-4.154-5.715-7.668-5.715z"/></g></g></svg>